<svg xmlns="http://www.w3.org/2000/svg" viewBox="0 0 292.08 68.03"><title>Recurso 6</title><g id="Capa_2" data-name="Capa 2"><g id="Capa_1-2" data-name="Capa 1"><path d="M80.6,47.36l.83-.15,1,.07,1.2.62a12.57,12.57,0,0,1,1.56,1.4l1.1-.93,1.11-.7.65-.39.73-.15L89.6,47a7.25,7.25,0,0,1,1.59.17,3,3,0,0,1,1.27,1.07l.48.76,1.34,2.45a13,13,0,0,1,.59,5.12v.81l-.28,1.08-.74,1.86a8.51,8.51,0,0,1-1.1,1.93l-.65.86-.64.62-.55.54a5,5,0,0,1-1.56,1l-1.09.32,1.75-2a12.36,12.36,0,0,0,1.92-7.89l-.2-1.24a11.59,11.59,0,0,0-1.72-4l-1.91-1.09-.87.27-1,.69a3,3,0,0,0-.82,2c0,.69.06,1.9.08,3.63v4.26a20.11,20.11,0,0,1-.08,3.25l-1.67,1.47-1.56-1.16V62.22c.06-1.54.06-3.45,0-5.72,0-1.6,0-3.3-.11-5.08l-1.77-1.59-1,.11-.87.13-.47.39-1.28.77-.77.91a10.66,10.66,0,0,0-1.05,3.43l0,2.24L75,59.22l.21.61q1.27,3.66,2.39,3.79l1-.31,1.12-.06-.29,1-.74.78-.74.68-1.37.48-.83.08-.9.06q-1.47-1-2.32-4.09L72,61.06a31.19,31.19,0,0,1-.26-3.71l.17-1.09A8.12,8.12,0,0,1,73.36,53l.52-1,.74-.86.63-.61,1-.86.92-.69,1.18-.63C79.3,47.9,80,47.57,80.6,47.36Z" style="fill:#1d1d1b"/><path d="M97.45,60.06l-.39-.54-.38-.62-.31-.62-.31-.86a11.63,11.63,0,0,1,0-4q2.06-5.26,8.6-6.46h1.75l.56,0,1.47.78,1.17,1,.58.74c-.25.51-.51,1.06-.77,1.62l-1.6-.23-1.12-.2-1.32-1.23-1.66-.66-1.86.23-1.14.84a7.7,7.7,0,0,0-1.88,2l-.18.93a6.08,6.08,0,0,0-.09,1l.39-.15.46-.39.39-.39.5-.38,3.91.65,1.46-.28c-1.17,1.81-2.25,2.65-3.23,2.49l-1.78-.23a1.78,1.78,0,0,0-1.84-.2,1.52,1.52,0,0,0-.26.9l.16.54.15.77.54.47.62.38.62.55,1.2.62a24.33,24.33,0,0,0,3,.54l1.47-.23,1.29-.55,2.26-1.11-.43,1-.64.69-1,.67a6.69,6.69,0,0,1-4.66,1.52Q99.23,62.15,97.45,60.06Z" style="fill:#1d1d1b"/><path d="M111.05,48.44l.77-.61.85-.39.31-.23.48-.19.33.91.32.6.5-.22,1-.72a5.39,5.39,0,0,1,1.4-.65l.73-.14a10.57,10.57,0,0,1,1.23-.21h1.32l.65.2.57.08a4.44,4.44,0,0,1,1.06.61l.58.45.49.6.33.45.33.52.36.69.25.93v.93l-.16,1.16-.44.81-.77.85-.62.77-.54.55-.77.38-.93.39-.7.31-.7.39-1.86.54a10.79,10.79,0,0,0,3.41.85,2.5,2.5,0,0,0,1.78-.31l2.25-1.32-.47,2.33-.69,1a4.13,4.13,0,0,1-3.8,1L118,61.42a8.29,8.29,0,0,1-1.64-1l-.58-.42a5,5,0,0,0-1.07-.57l-.73-.16-.17.8v.79l-.61.46-1,.7-1.38-.85a5.18,5.18,0,0,0,0-1V58.53a14.9,14.9,0,0,0,0-1.89l.16-.82V53.28L111,52.2a19.67,19.67,0,0,0,0-2.66C109.83,49.25,109.85,48.88,111.05,48.44Zm2.71,4v3.1l.07.85.16.7,1.16-.31,1.86-.55,1.16-.69a4.06,4.06,0,0,0,1.78-1,4,4,0,0,0,1.47-1.47,13.1,13.1,0,0,0,.08-1.39l-.08-.78-.23-.93a4.18,4.18,0,0,0-1.47-.93A3.81,3.81,0,0,0,118,49l-.69.07-.62.16-.54.23-.47.31-.54.23-.48.33-.63.45a3.26,3.26,0,0,1-.21.77A5.82,5.82,0,0,0,113.76,52.47Zm10.4-2.55v.13h.12v-.13Z" style="fill:#1d1d1b"/><path d="M127,60.06l-.38-.54-.39-.62-.31-.62-.31-.86a11.89,11.89,0,0,1,0-4q2.06-5.26,8.6-6.46H136l.56,0,1.48.78,1.17,1,.58.74c-.26.51-.52,1.06-.78,1.62l-1.59-.23-1.13-.2-1.31-1.23-1.67-.66-1.86.23-1.14.84a7.5,7.5,0,0,0-1.87,2l-.19.93a6.08,6.08,0,0,0-.09,1l.39-.15.47-.39.38-.39.51-.38,3.91.65,1.45-.28c-1.17,1.81-2.24,2.65-3.23,2.49l-1.78-.23a1.77,1.77,0,0,0-1.83-.2,1.46,1.46,0,0,0-.27.9l.16.54.15.77.55.47.61.38.62.55,1.2.62a24.67,24.67,0,0,0,3,.54l1.47-.23,1.29-.55,2.27-1.11-.44,1-.64.69-1,.67a6.69,6.69,0,0,1-4.66,1.52Q128.75,62.15,127,60.06Z" style="fill:#1d1d1b"/><path d="M140.29,49.37q1-2.09,4.18-2.71a8.55,8.55,0,0,1,4.18,1.2l1.08.33a3.89,3.89,0,0,0,2.4.08l.63.09h.69l.77-.25c.05,1-1.57,1.66-4.84,1.91l-1.69-.26-1.11.26a2.25,2.25,0,0,1-1.14.78l-2,2.3L143,54.69c-.11,1.85.11,2.93.67,3.25a6.73,6.73,0,0,0,2.53,2l2.42-.42,1.86-.49,1.32-1c.29.83-.27,1.63-1.67,2.4l-1.12.44-1,.41-.83.24-2.37.33C142,61.57,140.44,60.29,140,58l.13-2.57.85-2.67,1.82-2.2,2.46-1.4-1.16-.31-2,.23Z" style="fill:#1d1d1b"/><path d="M158.33,52.86l-.31.31-.15.46v.47a43.61,43.61,0,0,0,.48,5L158,60.21l-.67.7-1.5,1.3-.73-.37,0-4.65.08-3.64.11-.77v-.85l0-.62,0-.62,0-.58-.11-2.74.46-.4.35-.54.47-.62.85.16.93.23-.24,1-.23,1.93.06,2.4v.54L159,50.84l1.26-.69,1.6-.78,1-.15,1.16.08.93.38.7.47.54.39.39.38.31.47a5.17,5.17,0,0,1,.77,3l-.16,1.23-.23,1.17L167,58.12l-1.24,1.94-1.78,2.4-1.86,1.78-1.55,1.16-1,.46-.73-.15c.44-.41.89-.88,1.35-1.39l.78-.78.62-.77.85-.93.69-1,.45-.85.62-1.39a11.69,11.69,0,0,0,.62-3v-1l-.16-.77-.46-.93-.7-.78a4.91,4.91,0,0,0-1.44-.8,6.1,6.1,0,0,0-1.19,0l-.85.31-1.07.86Z" style="fill:#1d1d1b"/><path d="M26.11,36.14a7.59,7.59,0,0,1,.08-1.35c-.3-.09-.61-.22-.61-.66l.05-.26A10,10,0,0,0,23.58,33l-1,0c-.35.74-1.31.31-2.31.61l-.78.26h0l-1.26.4a4,4,0,0,1-.79.08l-2,.18a.31.31,0,0,0-.18,0h.05a2,2,0,0,1-.44,0c-.39,0-1.22-.17-1.65-.17h-.83l-1.31-.31a1.7,1.7,0,0,0-.44-.08l-1.09-.44L8.49,33a4.17,4.17,0,0,1-.82-.7L7,31.17c-2-1.31-4-2.44-5.32-6.5L1.26,22.1C1.17,21.54,1,19.92,1,19.57V18.31A.61.61,0,0,1,1,18.14c0-.53-.18-1.31-.18-1.88a7.47,7.47,0,0,1,.31-1.66c.21-.95.56-1.39,1-3.35L4.22,7.8,5.75,6.28l.48-.61a6.36,6.36,0,0,1,.87-.83v0l.39-.43a2.21,2.21,0,0,0,.83-.4L9.58,3.4a4.26,4.26,0,0,1,1.22-.57l1.79-.26a1.87,1.87,0,0,1,1.35.83h0a1.33,1.33,0,0,0,.35.31l2.88,0c.17,0,.34,0,.61,0s.87,0,1.3,0H21.7l1,.22a2.41,2.41,0,0,0,.52.17h1c.05,0,.09.05.13.05.44,0,.57-.18.92-.18l1.13,0a2.73,2.73,0,0,1,.87-.13c.4,0,1.31.31,1.31.88V5c0,.44-.39.7-.39.87l.48,2.05.48.57c0,.13.09.65.09.83l.26.82-.05,0,.22.31v-.05l.87,1,.4,1.09c.17.18.26.27.26.83,0,1.09-.18,1.18-.88,1.35l-.65.09-.78-.35a.68.68,0,0,0-.27-.3l-.34-.83,0,0c0-.08-.17-.17-.22-.26v0l-1-1.36a1.88,1.88,0,0,1-.18-.48L25.06,9.33c-.17-.09-.52-.31-.83-.44l-1.57-.78L22.23,8c-.4-.09-1.88-.61-3-.83l-.56-.26h0L18,6.41l-.43-.09a3.41,3.41,0,0,1-.75.18l-1.48,0L15,6.28l-1.4,0c-.43,0-.87,0-1.26,0a2.14,2.14,0,0,0-1.79.7l-.21.17V7c-.57.57-1,1.31-1.57,1.87L8,9.68a1.32,1.32,0,0,1-.3.48l-.4,2.18-.17.26v.26c0,.44-.26.52-.26,1v.26a1.81,1.81,0,0,0,0,.22,3.27,3.27,0,0,1,0,.53h.91l.66-.13,3.4.26h1.31c1,0,2.48-.13,3.57-.13l5.54.13c.65,0,3.05-.22,4-.31l.44-.22a1,1,0,0,0,.61-.3l1.53,0c0,1,.3.79.3,1.18l.13.26,0,2.49a1.59,1.59,0,0,1-.35.78l-.31.48-.48.44-.26,0-.65-.13a.87.87,0,0,1-.44-.74l.09.13c0-.05-.09-.26-.13-.39l-.31-.09c-.21,0-.61-.35-.74-.35a4.74,4.74,0,0,0-2-.61c-1,0-3.92.13-4.14.13l-1,.13H7.27a.72.72,0,0,0-.74.44.65.65,0,0,0,.09.17.15.15,0,0,1,.17-.17L7,20.1c0,.13.09,1.17.13,1.48v0l.31.74a20.81,20.81,0,0,0,1.31,3l.52.48H9.19a3.34,3.34,0,0,1,1.35,2.14l.13.13v0l1.79,2.14,2.4,1.13,0,0,.82.31a5.39,5.39,0,0,0,2.05.43h.61a7.28,7.28,0,0,0,.74-.09h0a1.79,1.79,0,0,1,.48,0L21,31.34l.7-.3a.21.21,0,0,0,.13-.09l.52-.52a4.89,4.89,0,0,1,1.22-.79c1.62,0,1.7-.61,1.79-1.22l.31-1,1.48-2.27c.52,0,.61-.48,1.66-.48l-.14,4-.34,1.27c0,.21.08.74.21,1.61v.39c0,.7-.39,1.31-.39,2.22l-.22,1.14-.26.48-.48.52s-.08,0-.13,0a2.73,2.73,0,0,1-.7.09Z" style="fill:#1d1d1b"/><path d="M31.26,30.34l1.87-2.13a10.5,10.5,0,0,1,2.44-.57,1.25,1.25,0,0,1,.92.3l1.48.92a7.34,7.34,0,0,1,.83.57l.3.13a6.64,6.64,0,0,0,3,1.22,2.19,2.19,0,0,0,2.14-2.23v-.08c-.09-2-.65-2.18-2.4-2.49-1-.08-2.35-.43-2.66-.43L36,25.37a7.35,7.35,0,0,1-1.75-.52h.05l-1-.44v.05a2.76,2.76,0,0,1-.82-.53l-.83-.82A1.69,1.69,0,0,1,31,21.8a7.12,7.12,0,0,1,.27-2.4l.13-.35c0-.35.21-.74,1-2.18a5.23,5.23,0,0,0,.79-1l.39-.39.39-.61,0,0a2.82,2.82,0,0,1,.39-.57l2.27-1.48a3.49,3.49,0,0,1,2.05-1l1.44-.26a11.13,11.13,0,0,1,2.22-.48h.22c2.61,0,6,2.14,6,3.36v.17a2.89,2.89,0,0,1-3.14,2.88h-.17a2.25,2.25,0,0,1-1.31-.31H44L41.11,16a7.28,7.28,0,0,0-.87-.39l-.88-.22-.56-.31c-.22-.08-.48-.17-.44-.21a.5.5,0,0,1-.13,0l-.26.17-.44.53a1.26,1.26,0,0,0-.17.35l-.44.56a5.51,5.51,0,0,0-.69,1.79l.17,1s.09.22.13.22l.74.69.74.4h0a18.1,18.1,0,0,0,2.83.61h6.63c1,0,1.22,1.31,1.92,2.22l.13,3.53c0,1.75-4.88,5.8-5.89,5.8h-.3a5.74,5.74,0,0,1-3.93,1.57l-1.61.13-.7-.26h-.52A3.79,3.79,0,0,1,35.48,34L35,33.74a17.53,17.53,0,0,1-2-.83l-.79-.69c-.52-.48-1-.79-1-1.35A1.85,1.85,0,0,1,31.26,30.34Z" style="fill:#1d1d1b"/><path d="M60.55,23V20.84l.31-2.44c0-.35,0-1.09,0-1.44v-.22c0-.91,0-1.57-1.09-1.57h-2a6.64,6.64,0,0,1-2-.17l-.47.08c-1.7.53-1.66,1.27-3.62,2.92l-1.22.92a3,3,0,0,1-.74.57H49c-.22,0-.65-.7-.65-.87l-.05-.7.35-.92A3.92,3.92,0,0,1,50.44,15L52,13.69l4.1-1.61,1.17-.31a18.5,18.5,0,0,1,2.31-.35h.35c2.31.09,3.36.35,4.54.35h.65c.09,0,1,.44,1.05.44l2.87.21a11.75,11.75,0,0,0,1.53.22c.92,0,2-.91,2.7-.91a3,3,0,0,1,2.18,1.09l.22.74c0,.09,0,.22,0,.26a3.21,3.21,0,0,1-.47,1.35l-.75.52-.87.44-.26.26a1.68,1.68,0,0,1-1.22.48,1.64,1.64,0,0,1-1.31-.7h0a2,2,0,0,0-1.7-.82,4.1,4.1,0,0,0-1.66.3l-.39.13-.4.35a1.25,1.25,0,0,0-.13.35v4.93A28.13,28.13,0,0,0,67.22,29l.22.91a1.24,1.24,0,0,0,.7.39s.09,0,.13,0c.83,0,3.79.09,3.79,1.13,0,1.4-2.57,2.4-3.22,2.53l-4.28.4H63.47c-1.39,0-3.09-.48-3.18-2.14C60.55,27.29,60.55,24.94,60.55,23Z" style="fill:#1d1d1b"/><path d="M74.6,23.28a11.72,11.72,0,0,1,.65-4.23L75.86,18a.77.77,0,0,0,.26-.43l.66-1.13.65-.66h-.05l.44-.57,1.31-.69c.57-.31.87-1.09,1.7-1.44h0L83.1,12l-.14.22a6.63,6.63,0,0,1,2.88-1.05h.31c.3,0,.65.05,1,.05A2,2,0,0,0,88.33,11l2.35.43,1,.31,2.14,1.48,1.87,2A6.91,6.91,0,0,1,97.44,20c0,.65-1.22,1.7-2.36,1.7H86.76l-.83.3h-.48a3,3,0,0,0-1.26-.22c-.18,0-.53.05-.88.05l-.87,0c-.69.13-2.74.48-2.74,1.13a22,22,0,0,0,.87,2.14c.26,1.48.83,2.22,2,4l.18.3c.39.83,2.44,1.53,3.57,2.27.31.39,1.22.31,1.66.52h3.4a2.6,2.6,0,0,1,.78-.21l.92-.27v.61l-.57.57a4.85,4.85,0,0,1-2.35,1.05c-1.53,0-1.44.43-4.62.43H84.45c-.48,0-1,0-1.14,0l-.48-.22A7.88,7.88,0,0,1,79.26,33l-.52-.31L77,30.91l-.39-.61A7.49,7.49,0,0,1,75.73,29l-.61-1.48,0,.05a3.68,3.68,0,0,1-.43-1.31l-.22-1Zm5.62-4.05c.22,0,.91.21,1.09.21h.61l.35-.21L83.53,19a2.26,2.26,0,0,0,.57-.22c1.92,0,1.57-.44,4.44-.44a7.38,7.38,0,0,1,2.88.27c0-.18-.21-.35-.35-.53v.05c-.13-.14-.26-.27-.39-.27l-2.22-2.26L88,15.43a5.69,5.69,0,0,0-2-1l-3.4,0a4.07,4.07,0,0,0-2.57,4v.7Z" style="fill:#1d1d1b"/><path d="M100.45,30.6c0-.3-.09-2.83-.09-3.18s.22-1.87.22-2.05-.13-3-.13-3.27c0,0,.22-.56.22-.61V21c0-.13-.26-.87-.26-1s.35-2.22.39-2.48a49.66,49.66,0,0,0-.39-7.85V9.5a1.65,1.65,0,0,0,0-.21s.22-.66.27-.7l-.27-1.4c0-1-.69-1.13-.69-1.78l-.31-.92A6.65,6.65,0,0,0,99,3.62,3.29,3.29,0,0,1,100.84,1l1.7-1h.88a6.22,6.22,0,0,1,1.52,1.79l.22.52c.3.31.52,3.79.52,4.75,0,.57-.08,2.31-.08,2.53a18.17,18.17,0,0,0,.08,2.09,27.26,27.26,0,0,1-.39,5.06v.65a2.76,2.76,0,0,1-.17.7v.18a23.93,23.93,0,0,1,.34,3.09v1.83c0,.31-.13,2.66-.17,2.92v.31c0,.43.26,1.57.26,1.57l.44.48A5.61,5.61,0,0,0,110,29.73h.35c.48.09,4.14.52,4.58.57l1.48-.05c.44,0,4.1.14,4.53.14h1.84c0,.91-.7,1.57-2.71,3.22-.13.31-2.31.35-2.53.48a11.61,11.61,0,0,1-5.1.66c-1.26,0-4-.79-5.71-.79h-1.52a11.06,11.06,0,0,1-1.57-.17,16.53,16.53,0,0,1-2.1-.18c-.17,0-1.35-.74-1.35-1A9.24,9.24,0,0,0,100.45,30.6Z" style="fill:#1d1d1b"/><path d="M122.17,20.4l.69-1.09A9.69,9.69,0,0,1,125.3,16l.66-.44c.17-.13,1.35-1.26,1.52-1.35s2.62-1.35,2.88-1.52l.22-.22,1.13-.48c.13,0,.87,0,1.4,0,.69,0,1.26-.52,1.87-.7h1.79a1.91,1.91,0,0,1,.65.27l1.35.87,1.75,1.31c.48.34,1.39,1.65,1.52,1.57V16a4.61,4.61,0,0,1-3.48,2c-.18,0-.7,0-.7,0l-.87-.22c-.13,0-1.18-.78-1.31-.82l-.44-.27c-.61-.21-.91-.74-1.57-.91l-.65-.39a2.48,2.48,0,0,0-1.83-.7A6,6,0,0,0,128.36,16l-.66,1.31v.43c0,.05-.22.4-.22.44-.08.87-.21,1.61-.21,2.44a6.49,6.49,0,0,0,.26,1.26c0,.14,0,.35,0,.44,0,.31.22,1.09.22,1.4l.22.91c0,.09,1,1.57,1.31,2.18.17.18,2,2.83,3.14,2.83l.65.48c.39.27,1.4.13,2,.44a5.39,5.39,0,0,1,.7.44,14.53,14.53,0,0,0,4.93.52c0,.87-3.75,2.79-6.72,2.79-3.66,0-4.49-1.05-7.06-2l-1.09-.48c-.17-.05-.65-.22-.7-.22a3.61,3.61,0,0,1-.43,0c-.48,0-1.09-1.26-1.09-2.05l-.88-1.09L122,27a4.05,4.05,0,0,1-.48-1.53V22.19C121.51,22.1,122,20.88,122.17,20.4Z" style="fill:#1d1d1b"/><path d="M141.74,22.93c0-4.45,5.15-11.81,11.77-11.81a8.89,8.89,0,0,1,3.27.61l.35.13,0,0,1.26.4c3.75,1.35,6.28,4,7.11,8.8v2.14l-.22,1.22c-.79,4.4-5.41,7.32-7.94,9l-1.87.48c-.17.05-.48.13-.44.13h0a9.38,9.38,0,0,1-2.92.27,8.18,8.18,0,0,1-4.62-1.09l-.79-.75c-2.31-2.18-3.18-3.05-3.88-4.66l-.57-1.31a8.85,8.85,0,0,1-.47-2.92A2.51,2.51,0,0,1,141.74,22.93ZM147,20.27v0l.26,1.44a15.43,15.43,0,0,0,.61,1.78l0,0L149,25.63c.31.61,1,1,1,1.7l1.22,1.36a5.38,5.38,0,0,0,1.44,1l.35.17-.05,0,1.05.43a4.29,4.29,0,0,0,1.31.4l2.53-.35A2.59,2.59,0,0,0,159.44,29l0,0,.39-1,.22-.26,0,.05a4.42,4.42,0,0,0,.57-2.49,6.21,6.21,0,0,0-.09-1.18,27.44,27.44,0,0,1-1.22-2.52L159,21a17.28,17.28,0,0,0-1.79-2.87c-.08-.4-4.4-3.14-5.45-3.14a.52.52,0,0,1-.39.17c-.17,0-.39,0-.7,0-.65,0-1.61.35-3.22,2.61l-.39.61a.91.91,0,0,1-.09.31v0a2.77,2.77,0,0,0-.09.43v.39C146.84,19.53,147,20.27,147,20.27Z" style="fill:#1d1d1b"/><path d="M168.43,33c0-.61.13-.78.13-1.18a18,18,0,0,0-.48-2.92v-.48c0-10.81-.31-12-.31-12l0,.05-.14-.31a2.65,2.65,0,0,1-.69-1.44,2.19,2.19,0,0,1,.87-1.44l.57-.56.65-.31A1.27,1.27,0,0,1,170,12c1.48,0,3.05,1.48,3.05,3.79a2.72,2.72,0,0,1-.21,1,1.21,1.21,0,0,0,.26.66l.17.48,3.92,2a12.36,12.36,0,0,1,3.14,2.05l1.7,1c-.08-.08.83.53,1.23.79l.56.3a11.53,11.53,0,0,0,1,.53l.43.22V19.36c0-1.31-.34-3.14-.56-3.14l-.31-.48a6.25,6.25,0,0,1-.52-1.31,3.64,3.64,0,0,1,1.31-1.66h0l.53-.39a4.84,4.84,0,0,1,2.65-1.09,2.38,2.38,0,0,1,1.7.83c0,1.66.44,2.09.44,3.27a5.84,5.84,0,0,1-.26,2.05v.78a8,8,0,0,0,.09,1.05l.13,1.22c0,.39.22,1.61.22,1.92l-.27,1.83a5.29,5.29,0,0,0,.14,1.74l-.05,0,.26.52,0-.13a1.39,1.39,0,0,1,.17.83c0,.52-.21,2.05-.21,2.31a5,5,0,0,0,.26.78v0l.13.39a2.82,2.82,0,0,1,.17,1v.35c-1,1.7-1.7,2.22-2.66,2.22h-.3c-.13,0-2.18-.34-2.27-2.22l-.22-.91c-.13-.44-.08-.7-.17-.92l-1.92-.3-1.61-.7a1.64,1.64,0,0,1-.48-.09h0l-.52-.13a.42.42,0,0,1-.31-.09h0c-.48-.13-.83-.22-1.31-.39l-2-1-1.66-1,.05,0-2.92-1.31c-.09.48-.09,1.05-.18,1.53v2c0,.22,0,.43,0,.65,0,3.18-.57,5.15-1,5.15,0,0-.09-.09-.09-.35a2,2,0,0,1-1.18.65h0a1.18,1.18,0,0,1-.78.26C168.73,35,168.43,33.74,168.43,33Z" style="fill:#1d1d1b"/><path d="M221.14,34.35c-4.14,0-5.19-.13-7.24-.3L212,33.87l-.13-1.65,3.45-2.62L217.17,28c2.66-2.22,6.89-6.06,7.59-7.15l.35-.43s.82-1.36,1-1.66l.13-.26c.17-.35.35-.83.35-.83l-.39-6.19s-.27-.57-.4-.79l-.39-.65-.65-.52a16.48,16.48,0,0,0-2.1-1.14H215.6c-.48,0-.74-.74-.74-1.35V6.32A12.16,12.16,0,0,1,217,4.58l0,0c.21-.09,2.18-.52,2.83-.65h.79a20.62,20.62,0,0,1,4,.91l2,1.14c5.71,3.79,5.75,8.72,5.75,10.11L232,17.39v0L231.51,19l-1.17,1.48a20.1,20.1,0,0,1-1.53,2.09l-3,3-.66.48h.05l-1.05.74v-.05c-.48,0-1.4,1.05-1.83,1.31l-.39.31-1.88,1-.22.22h1.75c.43,0,1.35,0,1.92,0h.39c.26,0,2.83-.57,3.09-.66l3.14-.3a21.08,21.08,0,0,1,2.14-.35H233a1.51,1.51,0,0,1,.92.61l.52,6.36a1.72,1.72,0,0,1-.57.57h-.17c-.18,0-.4,0-.53,0a2.89,2.89,0,0,1-1.17-.17l-.79-.17-1.79-.61a4.3,4.3,0,0,0-1-.35Z" style="fill:#1d1d1b"/><path d="M240.54,28a13.23,13.23,0,0,1-1.13-1.26l-.74-.74a16.62,16.62,0,0,1-1.48-2.45l-.79-2.87a9.15,9.15,0,0,1-.35-1.22v-.31c0-.3,0-.65,0-.87s0-.65,0-.92v-.3l1-3.75v0l.18-.56,1.09-2.14a11.18,11.18,0,0,1,1.22-1.74l1.43-1.48,2-1.49a3.87,3.87,0,0,0,.69-.43l.7-.44-.09.09.66-.31-.05,0h.05a11.19,11.19,0,0,0,1.65-.4L248.74,4h.43l1.22.3,0,0a10.54,10.54,0,0,1,3.79,2.35c.74.83,2.23,3.4,2.23,4.54l.74,1,.22.66v-.05l.13.4s.08.26.13.48l.26,1.52a16.74,16.74,0,0,1,.7,2.27v.17c0,.26,0,.48,0,.61-.61.66-.17,1-.48,1.75l-.26.65a11.69,11.69,0,0,1-.44,1.88v-.05c-.21.48-.52,1-.74,1.44l.05,0c-.05.17-.66,1.65-.75,1.83l-.47.61c-.44.56-1,1.31-1.4,1.7l-.31.52a4.55,4.55,0,0,1-.78.92l-3.36,3.22h0a7.17,7.17,0,0,1-2.4,1.53c-.09,0-.39,0-.39,0l-.57-.43c0-.18-.74-.66-.74-1.35Zm1.09-9.76v-.05l.39.87c.18.44.18,2.53.44,2.88a7.27,7.27,0,0,0,1.83,2.53h0l.39.31a45.41,45.41,0,0,0,4.93,3.31l.35,0,.26,0,.56-1,0,0,.74-1.74a4.08,4.08,0,0,1,.65-1.18l.14-.22V16.39l-.79-2.27-.26-1.35a1.65,1.65,0,0,1-.09-.43l-.3-.35a1.23,1.23,0,0,1-.4-.48l-.21-.44v0c-.74-1-1.09-2.62-4-2.62H246c-.31,0-.79-.09-1-.09-1,0-.92-.08-1.48,1.09l0,0c-1.22,1.87-1.26.87-1.83,4.27l-.35,2v1.7A2.8,2.8,0,0,0,241.63,18.27Z" style="fill:#1d1d1b"/><path d="M261,34.92l.35-1.26.39-1a11.7,11.7,0,0,0,.7-1.26c.08-.18.26-1.44.39-1.61s.65-1.14.7-1.27c.48-1,.26-1.79,1.09-2.88-.05-.43-.05-1.65-.05-2.92s0-2.48.05-2.92l.35-6.45c0-.13.39-1.18.39-1.31V9.5c0-1.39-5.15-2.13-5.15-3.53,0-1,1.31-1,2.23-1.61.74-.74,1.83-1.7,2.39-1.7a3.42,3.42,0,0,1,2,1.22h4c.21,0,.39.52.39,1s-.39,1-.39,1.44c-.09.7-.35,4.1-.4,4.84v8.67L270,21.1c0,.39-.35,2.66-.35,3.23v1.61c0,.57.69,1.66.69,3.18v.66a1.94,1.94,0,0,1-1.09,1.61L267.14,33c-.22.13-1.7,1.18-1.83,1.31-1.7,1.22-2.66,3.57-3.84,3.57-.3,0-1.26-.21-1.26-1C260.25,36.66,260.86,35.14,261,34.92Z" style="fill:#1d1d1b"/><path d="M273.07,22.89A37,37,0,0,1,275.81,19a1.65,1.65,0,0,0,.88-1.53c0-.91-.44-1-.88-1.52a27.81,27.81,0,0,1-1.52-3.06v-.3c.35-1.27,1.79-4.14,2.35-4.4l1.57-2L280.57,4a3.74,3.74,0,0,1,.39-.26h1.57a20.26,20.26,0,0,1,6,5l.39.83.4,1.92V12.6l-.4,1.66-.39.82-1.22,1.14-.39.56v.53c2.57,1.83,5.19,3.75,5.19,5.4a9.88,9.88,0,0,1-2.4,4.89l-3.62,3.31c-.09.17-1.35,1.26-1.53,1.44s-1.09,1-1.22,1.09l-1.13.83s-.39,0-.57,0-.56,0-.65,0c-5-3.84-6-4.67-7.5-6.67l-.39-.83a11.14,11.14,0,0,1-.39-1.14V24.54Zm5.14.83c0,.39,4.06,5.31,5.76,5.31l.17,0c1.7-.87,2-1.66,2-3.7,0-1.18,0-2.58-3.62-4.63a23.86,23.86,0,0,0-3.14-1.74c-1.27,0-1.22,2.18-1.22,3.31C278.17,22.63,278.21,23.67,278.21,23.72ZM280,10.33a.36.36,0,0,0,0,.22c0,.74,1.26,2.62,1.83,2.62a15.32,15.32,0,0,0,3.14,2c.3,0,.82-.13.82-.31V11.47L282.18,9h-1.61Z" style="fill:#1d1d1b"/><path d="M175.63,58.35l.31-.69.23-.7.31-.54.58-1.24.67-1.54.28-1.22a3.5,3.5,0,0,0-.43-1.53l-.62-.37-.42-.28.1-.58,1.65-1,.55-.31.64-.38.73-.29a3.62,3.62,0,0,0,1.67-.81l.33.24.23.32.58,2,.23,1.19v.77l.21.7,2,8.46.44,1.2.2,1,.48,1.06a6.49,6.49,0,0,1,1.2.75l.31.75-.31.86A9.85,9.85,0,0,1,186.62,68l-1.31-.62a6.53,6.53,0,0,1-2.09-2.48c-.26-1.29-.42-2.16-.49-2.62v-.76l-.21-.95c.14-.34,0-.54-.47-.62l-.76.44h-.57l-1.14.67-1.57.56-2.54,2c-.3.47-.76,1.08-1.35,1.84-.14.38-.32.82-.52,1.33l-1.37,1.14-.63-1.71,1.53-1.79.57-1.16a24.13,24.13,0,0,0,1.68-4.09Zm1.82.78-.39,1h.62a4.94,4.94,0,0,1,.93-.61l.7-.47.69-.46,1.83-.78a41.51,41.51,0,0,0-1.35-6.42l-.57,2.32-.25.71-.31.68-.27.72-.34.71-.35.89-.32.47-.39.62Z" style="fill:#1d1d1b"/><path d="M201,49.84l.62.54.85.93.7,1A6.76,6.76,0,0,1,203,57l-1.76,2.17a9.58,9.58,0,0,1-2.33,2.09,15.38,15.38,0,0,1-4.21.69l-2.81-.42a4.24,4.24,0,0,1-2.63-3.46l-.06-1.85.16-1.85.74-1.4,1.73-1.78,3.12-1.62a2.12,2.12,0,0,1-1-2.87l.9-1.39.74-.78.82-.38.83-.39.9,0,.68.11h-.24l-.06.07-.24.24-.62.55a3.2,3.2,0,0,0-.88,1.3,2.61,2.61,0,0,0,.53,2l.58.39.62.16.55.15.31.16.74.31.42.31ZM193.56,52l-.39.38-.54.54-.46.55-.35.69-.16,1.4.14,1.08.43.54.32.78,1.07.77,1.8.7h2a9.09,9.09,0,0,0,2.29-1.25l.63-.89.17-1.71a4.45,4.45,0,0,0-1.42-2.75l-1.73-1.17-1.24-.37a6.72,6.72,0,0,0-1.82.09Z" style="fill:#1d1d1b"/><path d="M205.37,60.06l-.38-.54-.39-.62-.31-.62-.31-.86a11.89,11.89,0,0,1,0-4q2.05-5.26,8.6-6.46h1.75l.56,0,1.48.78,1.17,1,.58.74c-.26.51-.52,1.06-.78,1.62l-1.59-.23-1.13-.2-1.31-1.23-1.67-.66-1.86.23-1.14.84a7.5,7.5,0,0,0-1.87,2l-.19.93a6.08,6.08,0,0,0-.09,1l.39-.15.47-.39.38-.39.51-.38,3.91.65,1.45-.28c-1.17,1.81-2.24,2.65-3.22,2.49l-1.79-.23a1.77,1.77,0,0,0-1.83-.2,1.46,1.46,0,0,0-.27.9l.16.54.15.77.55.47L208,58l.62.55,1.2.62a24.67,24.67,0,0,0,3,.54l1.47-.23L215.6,59l2.27-1.11-.44,1-.64.69-1,.67a6.69,6.69,0,0,1-4.66,1.52Q207.16,62.15,205.37,60.06Z" style="fill:#1d1d1b"/><path d="M219,48.44l.77-.61.85-.39.31-.23.48-.19.33.91.33.6.49-.22,1-.72a5.33,5.33,0,0,1,1.39-.65l.74-.14a10.08,10.08,0,0,1,1.22-.21h1.32l.65.2.57.08a4.44,4.44,0,0,1,1.06.61l.58.45.49.6.33.45.33.52.36.69.25.93v.93l-.16,1.16-.43.81-.78.85-.62.77-.54.55-.77.38-.93.39-.7.31-.7.39-1.85.54a10.74,10.74,0,0,0,3.4.85,2.49,2.49,0,0,0,1.78-.31l2.25-1.32-.47,2.33-.69,1a4.13,4.13,0,0,1-3.8,1l-1.85-.34a8.08,8.08,0,0,1-1.65-1l-.58-.42a5.15,5.15,0,0,0-1.06-.57l-.74-.16-.16.8v.79l-.61.46-1,.7-1.37-.85a6.05,6.05,0,0,0-.06-1V58.53a14.9,14.9,0,0,0,0-1.89l.16-.82V53.28l.08-1.08a19.67,19.67,0,0,0,0-2.66C217.75,49.25,217.77,48.88,219,48.44Zm2.71,4v3.1l.07.85.16.7,1.16-.31,1.86-.55,1.16-.69a4,4,0,0,0,1.78-1,4,4,0,0,0,1.47-1.47,13.1,13.1,0,0,0,.08-1.39l-.08-.78-.23-.93a4,4,0,0,0-1.47-.93,3.77,3.77,0,0,0-1.7-.07l-.7.07-.62.16-.54.23-.47.31-.54.23-.48.33-.63.45a3.26,3.26,0,0,1-.21.77A5.82,5.82,0,0,0,221.68,52.47Zm10.4-2.55v.13h.13v-.13Z" style="fill:#1d1d1b"/><path d="M233.84,49.37q1-2.09,4.18-2.71a8.55,8.55,0,0,1,4.18,1.2l1.08.33a3.89,3.89,0,0,0,2.4.08l.63.09H247l.77-.25q.07,1.53-4.83,1.91l-1.7-.26-1.11.26a2.23,2.23,0,0,1-1.13.78l-2,2.3-.53,1.59c-.11,1.85.11,2.93.67,3.25a6.82,6.82,0,0,0,2.53,2l2.42-.42L244,59l1.32-1c.29.83-.27,1.63-1.67,2.4l-1.12.44-1,.41-.83.24-2.37.33c-2.72-.27-4.32-1.55-4.78-3.86l.14-2.57.85-2.67,1.82-2.2,2.45-1.4-1.16-.31-2,.23Z" style="fill:#1d1d1b"/><path d="M251.89,52.86l-.31.31-.16.46v.47a41.7,41.7,0,0,0,.49,5l-.39,1.08-.68.7-1.5,1.3-.72-.37,0-4.65.08-3.64.12-.77v-.85l0-.62,0-.62,0-.58-.12-2.74.47-.4.34-.54.47-.62.85.16.93.23-.23,1-.23,1.93.05,2.4v.54l1.24-1.24,1.26-.69,1.61-.78,1-.15,1.16.08.93.38.7.47.54.39.39.38.31.47a5.09,5.09,0,0,1,.77,3l-.15,1.23-.23,1.17-.37,1.31-1.24,1.94-1.78,2.4-1.86,1.78-1.55,1.16-1,.46-.74-.15c.44-.41.89-.88,1.36-1.39l.77-.78.62-.77.85-.93.7-1,.44-.85.62-1.39a11.69,11.69,0,0,0,.62-3v-1l-.15-.77-.47-.93-.69-.78a5.08,5.08,0,0,0-1.45-.8,6.1,6.1,0,0,0-1.19,0l-.85.31-1.06.86Z" style="fill:#1d1d1b"/><path d="M264.71,56.57,265,56l.23-.54.34-.62.23-.62.23-.7.39-.77.15-.77.24-.86a2.51,2.51,0,0,0-.08-1.08l-.9-.23c-.09-.25.67-.87,2.29-1.86l.08.08-.54.15.54-.23.54-.31.47-.08.07-.07.47-.08.5,0,.53-.36.54.23,2.28,8.33.22.75a6.22,6.22,0,0,0,.93,1.94l.39.77.69.23.39.08h.7l.46,2.4-1.75.62-1-.08c-.56-.26-1.15-.54-1.75-.84l-1.73-4.4v-.13l-.45-.19-1.47.49-.62.19-2.42,1-1.05.8-.77.85c-.47.77-.88,1.42-1.24,1.93l-.39.47-1.08.23-.16-.7-.13-.65,2.14-2.19.55-1.11.35-.85ZM267,54.48l-.7,1.78,1-.31,1-.2,2.14-.93a20.66,20.66,0,0,0-1.21-5l-.8,1.52a10.08,10.08,0,0,1-.54,1.39l-.42.62-.23.46-1.39,3.8Z" style="fill:#1d1d1b"/><path d="M289.22,49.84l.62.54.85.93.69,1a6.77,6.77,0,0,1-.17,4.72l-1.76,2.17a9.76,9.76,0,0,1-2.33,2.09,15.45,15.45,0,0,1-4.21.69l-2.82-.42a4.22,4.22,0,0,1-2.62-3.46l-.06-1.85.16-1.85.74-1.4L280,51.23l3.13-1.62a2.12,2.12,0,0,1-1-2.87l.9-1.39.75-.78.82-.38.82-.39.9,0,.69.11h-.24l-.06.07-.24.24-.62.55a3.11,3.11,0,0,0-.88,1.3,2.57,2.57,0,0,0,.53,2l.58.39.62.16.54.15.31.16.75.31.41.31ZM281.78,52l-.38.38-.54.54-.47.55-.35.69-.15,1.4.13,1.08.44.54.32.78,1.06.77,1.8.7h2a9,9,0,0,0,2.28-1.25l.64-.89.16-1.71a4.41,4.41,0,0,0-1.42-2.75l-1.72-1.17-1.25-.37a6.74,6.74,0,0,0-1.82.09Z" style="fill:#1d1d1b"/><path d="M5.64,59.09l1-1.3.87-1,.6-.78L7.9,54.65,6.49,51.43l-1-1L4,49.55c-1.08,0-1.2-.37-.36-1.12L4.15,48l.78-.49.84-.63q1.38,0,.81-.18l1.35.09.72.29a10.77,10.77,0,0,1,2,3.81l.34.82,1-1.16,2.45-3,.46-.91.81-.46a3.77,3.77,0,0,1,2.88.83l-1.71,1-1.17,1.41-.54.93-.56.85-.55.52L13.59,53l-1.1,1.21a11.89,11.89,0,0,0,1.63,3.24l.27.65.44.69.86,1.65a5,5,0,0,1,1.93,3l-.68.71-.73.57-1,.65-1,.28-.9-.09-.54-1.12-.3-.73c-.52-1.21-1-2.15-1.3-2.84l-.52-1.18c-.4-.84-.8-1.26-1.21-1.25l-.54.09a18,18,0,0,0-1.71,2.25L5.13,63.45l-.71.8-1.35,1.5L1.81,66.87A3.14,3.14,0,0,1,0,66.57l.18-1.19L1.54,64,2.75,62.5l1-1Z" style="fill:#1d1d1b"/><path d="M25.84,59.09l.95-1.3.87-1,.61-.78-.17-1.32-1.4-3.22-1-1-1.53-.86c-1.08,0-1.2-.37-.36-1.12l.54-.47.78-.49.84-.63c.92,0,1.2-.09.81-.18l1.36.09.71.29a10.61,10.61,0,0,1,2,3.81l.34.82,1-1.16,2.45-3,.45-.91L36,46.1a3.8,3.8,0,0,1,2.89.83l-1.72,1L36,49.37l-.54.93-.55.85-.55.52L33.79,53l-1.1,1.21a11.68,11.68,0,0,0,1.64,3.24l.27.65.43.69.87,1.65a5,5,0,0,1,1.93,3l-.69.71-.72.57-1,.65-1,.28-.9-.09L33,64.45l-.3-.73c-.51-1.21-.95-2.15-1.3-2.84l-.52-1.18c-.39-.84-.79-1.26-1.2-1.25l-.55.09a18,18,0,0,0-1.71,2.25l-2.08,2.66-.71.8-1.35,1.5L22,66.87a3.16,3.16,0,0,1-1.81-.3l.19-1.19L21.74,64,23,62.5l.94-1Z" style="fill:#1d1d1b"/><path d="M44.67,45.5l1,.83.18,1.25a11.45,11.45,0,0,1-.33,1.52l-.48.92,0,.88v.65c0,.6,0,1.29,0,2.08L44.93,61l.41,2.13.11,2-2.13,1.9-2-1A4,4,0,0,1,41,63.91l.17-1.17.28-.73.25-10.38,0-1.33-.62-.89c-.2,0-.18-.88.06-2.66l2-1.49.63-.31Z" style="fill:#1d1d1b"/><path d="M52.64,45.5l1,.83.19,1.25a11.45,11.45,0,0,1-.33,1.52L53,50l0,.88v.65c0,.6,0,1.29,0,2.08L52.9,61l.41,2.13.11,2-2.12,1.9-2-1A4,4,0,0,1,49,63.91l.16-1.17.29-.73.24-10.38.05-1.33-.62-.89c-.2,0-.18-.88.05-2.66l2-1.49.63-.31Z" style="fill:#1d1d1b"/><path d="M60.62,45.5l1,.83.18,1.25a9.91,9.91,0,0,1-.32,1.52L61,50l0,.88v.65c0,.6,0,1.29,0,2.08L60.88,61l.41,2.13.11,2-2.12,1.9-2-1A3.93,3.93,0,0,1,57,63.91l.16-1.17.28-.73.25-10.38,0-1.33-.61-.89c-.21,0-.19-.88,0-2.66l2-1.49.63-.31Z" style="fill:#1d1d1b"/></g></g></svg>